PathFileType	4	(X/Y/Z)	/Users/itak/Documents/Research/Walk-IL/dataset/trc/00091_00006.trc
DataRate	CameraRate	NumFrames	NumMarkers	Units	OrigDataRate	OrigDataStartFrame	OrigNumFrames
100.000000	100.000000	4	53	mm	100.000000	387	517
Frame#	Time	RPSI			LPSI			L3			STRN			T10			C7			CLAV			RBAK			LBAK			LSHO			LUPA			LAEL			LAOL			LWTS			LWPS			LFRA			LHPS			LHTS			RSHO			RUPA			RAEL			RAOL			RWTS			RWPS			RFRA			RIFD			RHTS			RBHD			LFHD			RFHD			LBHD			LHIP			RHIP			RASI			LASI			LKNE			LTHI			LANK			LTIP			LTOE			LMT1			LMT5			LHEE			RKNE			RTHI			RANK			RTIP			RTOE			RMT1			RMT5			LIFD			RHPS			RHEE			
		X1	Y1	Z1	X2	Y2	Z2	X3	Y3	Z3	X4	Y4	Z4	X5	Y5	Z5	X6	Y6	Z6	X7	Y7	Z7	X8	Y8	Z8	X9	Y9	Z9	X10	Y10	Z10	X11	Y11	Z11	X12	Y12	Z12	X13	Y13	Z13	X14	Y14	Z14	X15	Y15	Z15	X16	Y16	Z16	X17	Y17	Z17	X18	Y18	Z18	X19	Y19	Z19	X20	Y20	Z20	X21	Y21	Z21	X22	Y22	Z22	X23	Y23	Z23	X24	Y24	Z24	X25	Y25	Z25	X26	Y26	Z26	X27	Y27	Z27	X28	Y28	Z28	X29	Y29	Z29	X30	Y30	Z30	X31	Y31	Z31	X32	Y32	Z32	X33	Y33	Z33	X34	Y34	Z34	X35	Y35	Z35	X36	Y36	Z36	X37	Y37	Z37	X38	Y38	Z38	X39	Y39	Z39	X40	Y40	Z40	X41	Y41	Z41	X42	Y42	Z42	X43	Y43	Z43	X44	Y44	Z44	X45	Y45	Z45	X46	Y46	Z46	X47	Y47	Z47	X48	Y48	Z48	X49	Y49	Z49	X50	Y50	Z50	X51	Y51	Z51	X52	Y52	Z52	X53	Y53	Z53	

388	3.87	-84.45984649658203	1013.602600097656	676.8470458984375	88.30156707763672	997.3323974609375	643.2620239257812	6.273274421691895	1067.725952148438	658.86767578125	53.55667877197266	1272.117431640625	903.4110107421875	6.858248233795166	1201.488159179688	639.5486450195312	23.79452133178711	1469.44482421875	691.3513793945312	52.36233520507812	1385.886108398438	870.2966918945312	-64.24279022216797	1330.322387695312	644.7439575195312	116.9459762573242	1429.873779296875	652.21630859375	208.2107696533203	1434.516723632812	738.78564453125	275.7494506835938	1306.599853515625	699.6732788085938	294.4194641113281	1092.307739257812	701.8104248046875	193.4638366699219	1081.269165039062	665.2766723632812	259.8562927246094	845.3466796875	786.8093872070312	300.3681640625	840.9163208007812	713.1797485351562	306.536376953125	982.8892822265625	710.21484375	304.3995056152344	757.4329223632812	738.1080932617188	268.9982299804688	761.6448974609375	799.3034057617188	-138.9783935546875	1434.7509765625	783.3644409179688	-205.7637329101562	1367.666137695312	781.662109375	-253.8739166259766	1103.302978515625	761.3746948242188	-157.6864929199219	1080.371459960938	765.5313720703125	-169.7710723876953	906.5331420898438	959.5247192382812	-222.9401245117188	862.5946044921875	906.6173095703125	-256.1231079101562	1021.631042480469	792.0520629882812	-121.1567306518555	737.2706909179688	1022.692932128906	-152.2230072021484	821.352783203125	1015.671997070312	-40.4541130065918	1622.480102539062	720.1009521484375	79.90927886962891	1703.22802734375	888.8524169921875	-43.51500701904297	1681.220458984375	881.517822265625	94.03823089599609	1652.545776367188	718.102783203125	191.0370941162109	940.4962768554688	733.4354858398438	-153.2787780761719	946.4255981445312	756.0599975585938	-115.3104095458984	968.0258178710938	876.6759643554688	152.6840362548828	960.3551025390625	855.18408203125	180.2939910888672	530.2020874023438	966.1867065429688	216.9603118896484	645.0984497070312	880.807861328125	245.136474609375	64.56993103027344	1045.923217773438	226.8698120117188	291.8186950683594	1000.46533203125	205.8170166015625	153.7955169677734	1222.994750976562	161.2049865722656	125.4656143188477	1175.661865234375	265.9783020019531	100.3937149047852	1146.16015625	176.9907836914062	39.00591659545898	988.6674194335938	-85.37765502929688	501.7635803222656	791.011474609375	-133.7384338378906	766.9833374023438	831.2193603515625	-77.32567596435547	42.23133087158203	630.1004028320312	-81.22840118408203	377.5810241699219	755.804931640625	42.69068145751953	39.91218185424805	813.857666015625	54.09950256347656	42.83100509643555	741.9478149414062	-43.72245025634766	46.75580596923828	749.333251953125	238.9182281494141	661.2968139648438	784.5202026367188	-208.9302825927734	791.9330444335938	972.0189208984375	-44.48181533813477	46.56950759887695	565.71533203125	
389	3.88	-81.02527618408203	1012.933166503906	683.060791015625	91.82832336425781	996.70458984375	650.3165893554688	9.658182144165039	1066.825561523438	665.5680541992188	55.67650985717773	1271.443237304688	909.9463500976562	10.22299766540527	1200.56005859375	646.0955810546875	26.77582359313965	1468.614501953125	697.5431518554688	54.64913177490234	1385.1845703125	876.7325439453125	-60.94594573974609	1329.397216796875	650.742431640625	120.0875396728516	1428.961669921875	658.865478515625	210.9975433349609	1433.708251953125	745.7986450195312	278.7572937011719	1305.770629882812	707.1473999023438	297.7307739257812	1091.528930664062	709.7883911132812	196.9876556396484	1080.278930664062	672.7804565429688	263.1606750488281	844.7035522460938	795.057373046875	303.990234375	840.1987915039062	721.61181640625	309.9874572753906	982.1470947265625	718.4308471679688	308.0988159179688	756.7855834960938	746.7605590820312	272.3902282714844	761.062255859375	807.76904296875	-136.3898315429688	1433.896240234375	788.9410400390625	-203.1018524169922	1366.6962890625	787.0407104492188	-250.6430511474609	1102.145751953125	767.02734375	-154.4251251220703	1079.466552734375	771.4343872070312	-166.3500061035156	905.9139404296875	965.6075439453125	-219.4060211181641	861.7882690429688	912.709228515625	-252.7574005126953	1020.527099609375	797.8336181640625	-117.3434371948242	736.8429565429688	1029.133666992188	-148.6487274169922	820.8623046875	1021.92138671875	-37.73759841918945	1621.7041015625	726.0960693359375	82.36528015136719	1702.568603515625	894.9591674804688	-41.04461669921875	1680.614990234375	887.4572143554688	96.77249908447266	1651.7021484375	724.3074340820312	194.5446319580078	940.1473999023438	741.462890625	-150.7602844238281	945.860595703125	761.5855102539062	-113.0223236083984	967.2555541992188	882.611083984375	155.1033477783203	959.4166870117188	862.4821166992188	182.6842041015625	529.393798828125	972.1739501953125	218.9279479980469	643.8853759765625	886.9481811523438	245.7685241699219	64.23052978515625	1056.895751953125	228.4495697021484	291.4155883789062	1008.58203125	206.4363403320312	155.4814758300781	1232.9267578125	161.7749938964844	127.0662536621094	1185.765380859375	266.4471435546875	100.8785781860352	1156.858764648438	177.6804351806641	38.5669059753418	999.7030029296875	-83.2708740234375	501.1318359375	795.9556274414062	-131.4049835205078	766.2809448242188	836.5516357421875	-77.29906463623047	42.89384841918945	630.3467407226562	-79.52603912353516	377.0413818359375	759.7434692382812	42.54998779296875	39.82059478759766	813.9910278320312	54.19606781005859	42.89920806884766	742.1074829101562	-43.74398803710938	46.63540649414062	749.5474243164062	242.6083068847656	660.6174926757812	793.1029052734375	-205.2174682617188	791.244384765625	978.2957763671875	-44.65660858154297	47.79806137084961	565.8917846679688	
390	3.89	-77.65892028808594	1012.30322265625	689.2814331054688	95.27507781982422	996.1031494140625	657.2960205078125	12.99344635009766	1065.979736328125	672.2664184570312	57.83398056030273	1270.793334960938	916.5006713867188	13.56343650817871	1199.687866210938	652.6461181640625	29.74782943725586	1467.819213867188	703.7880249023438	56.94172286987305	1384.512817382812	883.2044677734375	-57.657958984375	1328.512939453125	656.7849731445312	123.2426910400391	1428.114501953125	665.5575561523438	213.7787628173828	1432.978393554688	752.85986328125	281.7950439453125	1305.020141601562	714.7005004882812	301.0857543945312	1090.82763671875	717.8902587890625	200.5684356689453	1079.350830078125	680.3858032226562	266.5225219726562	844.1582641601562	803.4933471679688	307.6692199707031	839.5694580078125	730.2372436523438	313.4952392578125	981.4901123046875	726.8062133789062	311.8675537109375	756.2380981445312	755.6289672851562	275.8182983398438	760.583740234375	816.4463500976562	-133.7876739501953	1433.069091796875	794.5785522460938	-200.4058532714844	1365.739624023438	792.4907836914062	-247.3301239013672	1101.014404296875	772.7106323242188	-151.0993041992188	1078.604370117188	777.3634033203125	-162.9645080566406	905.154052734375	971.607421875	-215.8993835449219	860.8934936523438	918.6696166992188	-249.3310241699219	1019.445007324219	803.5955200195312	-113.6593627929688	736.2117919921875	1035.368530273438	-145.1601715087891	820.18310546875	1028.0302734375	-35.02078628540039	1620.952026367188	732.1033325195312	84.80948638916016	1701.945190429688	901.0758666992188	-38.57991790771484	1680.03857421875	893.3970336914062	99.50298309326172	1650.880249023438	730.5213623046875	198.0972900390625	939.9418334960938	749.5767211914062	-148.1236114501953	945.319091796875	767.2360229492188	-110.6688461303711	966.5130615234375	888.583740234375	157.5540161132812	958.5198974609375	869.7099609375	185.0388946533203	528.5625	978.4788208007812	220.6905517578125	642.8904418945312	893.4722290039062	246.1353607177734	63.45386123657227	1066.0283203125	229.8465118408203	290.7041625976562	1015.928283691406	207.2474975585938	155.9704284667969	1241.463256835938	162.4150238037109	127.6947784423828	1194.4638671875	266.9041748046875	100.4868087768555	1165.80810546875	177.9804077148438	37.96761703491211	1008.96728515625	-81.10020446777344	500.5298156738281	801.0098266601562	-129.0043029785156	765.6134643554688	841.950927734375	-77.30252075195312	43.67433547973633	630.5966186523438	-77.79070281982422	376.5298461914062	763.7896118164062	42.43245315551758	39.74585342407227	814.0982666015625	54.28315734863281	43.00522994995117	742.2639770507812	-43.78045272827148	46.55382919311523	749.763671875	246.3702239990234	660.0441284179688	801.9065551757812	-201.6289367675781	790.439208984375	984.345947265625	-44.83905410766602	49.16998291015625	566.0968627929688	
391	3.9	-74.3447265625	1011.713500976562	695.5150146484375	98.65824890136719	995.5136108398438	664.2290649414062	16.29146003723145	1065.189208984375	678.9577026367188	60.03556442260742	1270.17578125	923.0757446289062	16.88606643676758	1198.873046875	659.1990966796875	32.7138786315918	1467.068237304688	710.0858154296875	59.24550628662109	1383.878295898438	889.7125244140625	-54.37919235229492	1327.671630859375	662.8732299804688	126.4111328125	1427.337158203125	672.29052734375	216.5573272705078	1432.336181640625	759.9649047851562	284.8626708984375	1304.35986328125	722.3251342773438	304.4818725585938	1090.21630859375	726.10302734375	204.2026214599609	1078.496337890625	688.087646484375	269.9262084960938	843.7243041992188	812.1078491210938	311.3969421386719	839.0364990234375	739.046142578125	317.0470581054688	980.9306030273438	735.3280029296875	315.6891479492188	755.7984619140625	764.7002563476562	279.2779541015625	760.2223510742188	825.3232421875	-131.1702575683594	1432.27099609375	800.281005859375	-197.6739501953125	1364.803100585938	798.0181274414062	-243.9407043457031	1099.915405273438	778.4237670898438	-147.7098846435547	1077.787719726562	783.3150024414062	-159.6212310791016	904.2572021484375	977.526123046875	-212.4169006347656	859.9127807617188	924.5010986328125	-245.8478393554688	1018.388427734375	809.3369140625	-110.112907409668	735.3844604492188	1041.397827148438	-141.7637939453125	819.322509765625	1034.000244140625	-32.30539321899414	1620.22412109375	738.1253662109375	87.24008941650391	1701.364990234375	907.2055053710938	-36.12261199951172	1679.49609375	899.3382568359375	102.2297897338867	1650.082763671875	736.7454833984375	201.6378784179688	939.7974243164062	757.7232055664062	-145.3870697021484	944.818115234375	773.00634765625	-108.2547073364258	965.8133544921875	894.5969848632812	160.0443115234375	957.6736450195312	876.8976440429688	187.2721405029297	527.6787109375	985.0480346679688	222.2674560546875	642.0758056640625	900.3572998046875	246.3079376220703	62.25551986694336	1073.436401367188	231.0543060302734	289.6744384765625	1022.560791015625	208.1819763183594	155.2697448730469	1248.719970703125	163.099609375	127.3175201416016	1201.8427734375	267.3568115234375	99.25310516357422	1173.138061523438	177.9942474365234	37.17881774902344	1016.537231445312	-78.87618255615234	499.9687194824219	806.16943359375	-126.5370025634766	764.9951171875	847.4244384765625	-77.34918975830078	44.58821105957031	630.8554077148438	-76.04840087890625	376.0665283203125	767.9336547851562	42.33404541015625	39.68263244628906	814.1851196289062	54.35822296142578	43.15076065063477	742.4267578125	-43.83655166625977	46.50957489013672	749.9943237304688	250.1958312988281	659.5902709960938	810.9208374023438	-198.1589050292969	789.5138549804688	990.17138671875	-45.02349853515625	50.69506454467773	566.3367919921875	
